<svg width="28" height="24" viewBox="0 0 28 24" fill="none" xmlns="http://www.w3.org/2000/svg">
<path d="M13.1309 20.8555C12.2715 20.8555 11.6725 20.7188 11.334 20.4453C11.002 20.1784 10.8359 19.804 10.8359 19.3223C10.8359 18.6973 11.028 18.043 11.4121 17.3594C11.8027 16.6693 12.3594 16.0247 13.082 15.4258C13.8112 14.8268 14.6868 14.3418 15.709 13.9707C16.7311 13.5931 17.8737 13.4043 19.1367 13.4043C20.4062 13.4043 21.5521 13.5931 22.5742 13.9707C23.5964 14.3418 24.4688 14.8268 25.1914 15.4258C25.9206 16.0247 26.4772 16.6693 26.8613 17.3594C27.252 18.043 27.4473 18.6973 27.4473 19.3223C27.4473 19.804 27.278 20.1784 26.9395 20.4453C26.6074 20.7188 26.0085 20.8555 25.1426 20.8555H13.1309ZM19.1465 11.6953C18.4108 11.6953 17.7402 11.5 17.1348 11.1094C16.5293 10.7188 16.0443 10.1947 15.6797 9.53711C15.3216 8.87956 15.1426 8.14388 15.1426 7.33008C15.1426 6.53581 15.3249 5.81315 15.6895 5.16211C16.054 4.51107 16.5391 3.99349 17.1445 3.60938C17.75 3.22526 18.4173 3.0332 19.1465 3.0332C19.8757 3.0332 20.5397 3.22526 21.1387 3.60938C21.7441 3.98698 22.2292 4.5013 22.5938 5.15234C22.9583 5.80339 23.1406 6.52279 23.1406 7.31055C23.1406 8.13086 22.9583 8.87305 22.5938 9.53711C22.2357 10.1947 21.7539 10.7188 21.1484 11.1094C20.543 11.5 19.8757 11.6953 19.1465 11.6953ZM2.49609 20.8555C1.77344 20.8555 1.26562 20.6992 0.972656 20.3867C0.686198 20.0807 0.542969 19.651 0.542969 19.0977C0.542969 18.4596 0.715495 17.8053 1.06055 17.1348C1.41211 16.4642 1.9069 15.8457 2.54492 15.2793C3.18945 14.7129 3.95443 14.2539 4.83984 13.9023C5.72526 13.5508 6.70508 13.375 7.7793 13.375C8.61263 13.375 9.37435 13.4824 10.0645 13.6973C10.7611 13.9121 11.3698 14.1823 11.8906 14.5078C11.3047 14.9831 10.8066 15.5072 10.3965 16.0801C9.99284 16.6465 9.68685 17.2259 9.47852 17.8184C9.27669 18.4043 9.18555 18.9609 9.20508 19.4883C9.23112 20.0156 9.3776 20.4714 9.64453 20.8555H2.49609ZM7.7793 11.9102C7.14128 11.9102 6.55859 11.7409 6.03125 11.4023C5.50391 11.0638 5.08398 10.6081 4.77148 10.0352C4.45898 9.45573 4.30273 8.81445 4.30273 8.11133C4.30273 7.42122 4.45898 6.79297 4.77148 6.22656C5.09049 5.66016 5.51367 5.20768 6.04102 4.86914C6.56836 4.5306 7.14779 4.36133 7.7793 4.36133C8.41081 4.36133 8.99023 4.5306 9.51758 4.86914C10.0449 5.20117 10.4648 5.65039 10.7773 6.2168C11.0964 6.77669 11.2559 7.40495 11.2559 8.10156C11.2559 8.8112 11.0996 9.45573 10.7871 10.0352C10.4746 10.6081 10.0547 11.0638 9.52734 11.4023C9 11.7409 8.41732 11.9102 7.7793 11.9102Z" fill="#2E9980"/>
</svg>
