<svg width="24" height="24" viewBox="0 0 24 24" fill="none" xmlns="http://www.w3.org/2000/svg">
<path d="M7.69336 7.08594C7.96029 7.08594 8.18815 6.99154 8.37695 6.80273C8.56576 6.60742 8.66016 6.37956 8.66016 6.11914C8.66016 5.85221 8.56576 5.62435 8.37695 5.43555C8.18815 5.24674 7.96029 5.15234 7.69336 5.15234C7.43294 5.15234 7.20508 5.25 7.00977 5.44531C6.82096 5.63411 6.72656 5.85872 6.72656 6.11914C6.72656 6.37956 6.82096 6.60742 7.00977 6.80273C7.20508 6.99154 7.43294 7.08594 7.69336 7.08594ZM7.69336 10.0059C7.96029 10.0059 8.18815 9.91471 8.37695 9.73242C8.56576 9.54362 8.66016 9.31576 8.66016 9.04883C8.66016 8.7819 8.56576 8.55729 8.37695 8.375C8.18815 8.1862 7.96029 8.0918 7.69336 8.0918C7.42643 8.0918 7.19857 8.1862 7.00977 8.375C6.82096 8.55729 6.72656 8.7819 6.72656 9.04883C6.72656 9.31576 6.82096 9.54362 7.00977 9.73242C7.19857 9.91471 7.42643 10.0059 7.69336 10.0059ZM7.69336 13.0918C7.96029 13.0918 8.18815 12.9974 8.37695 12.8086C8.56576 12.6133 8.66016 12.3854 8.66016 12.125C8.66016 11.8581 8.56576 11.6302 8.37695 11.4414C8.18815 11.2526 7.96029 11.1582 7.69336 11.1582C7.43294 11.1582 7.20508 11.2559 7.00977 11.4512C6.82096 11.64 6.72656 11.8646 6.72656 12.125C6.72656 12.3854 6.82096 12.6133 7.00977 12.8086C7.20508 12.9974 7.43294 13.0918 7.69336 13.0918ZM10.6035 6.85156H16.5508C16.7461 6.85156 16.9121 6.77995 17.0488 6.63672C17.1921 6.48698 17.2637 6.31445 17.2637 6.11914C17.2637 5.92383 17.1921 5.75456 17.0488 5.61133C16.9121 5.4681 16.7461 5.39648 16.5508 5.39648H10.6035C10.4082 5.39648 10.2389 5.4681 10.0957 5.61133C9.95247 5.75456 9.88086 5.92383 9.88086 6.11914C9.88086 6.31445 9.95247 6.48698 10.0957 6.63672C10.2389 6.77995 10.4082 6.85156 10.6035 6.85156ZM10.6035 9.77148H16.5508C16.7526 9.77148 16.9219 9.69987 17.0586 9.55664C17.1953 9.41341 17.2637 9.24414 17.2637 9.04883C17.2637 8.84701 17.1953 8.67773 17.0586 8.54102C16.9219 8.39779 16.7526 8.32617 16.5508 8.32617H10.6035C10.4017 8.32617 10.2292 8.39779 10.0859 8.54102C9.94922 8.67773 9.88086 8.84701 9.88086 9.04883C9.88086 9.24414 9.94922 9.41341 10.0859 9.55664C10.2292 9.69987 10.4017 9.77148 10.6035 9.77148ZM10.6035 12.8379H16.5508C16.7461 12.8379 16.9121 12.7695 17.0488 12.6328C17.1921 12.4896 17.2637 12.3203 17.2637 12.125C17.2637 11.9232 17.1953 11.7507 17.0586 11.6074C16.9219 11.4642 16.7526 11.3926 16.5508 11.3926H10.6035C10.4017 11.3926 10.2292 11.4642 10.0859 11.6074C9.94922 11.7507 9.88086 11.9232 9.88086 12.125C9.88086 12.3203 9.95247 12.4896 10.0957 12.6328C10.2389 12.7695 10.4082 12.8379 10.6035 12.8379ZM3.33789 19.2539V4.6543C3.33789 3.54102 3.63086 2.68815 4.2168 2.0957C4.80924 1.50326 5.65885 1.20703 6.76562 1.20703H17.2246C18.3379 1.20703 19.1875 1.50326 19.7734 2.0957C20.3594 2.68815 20.6523 3.54102 20.6523 4.6543V19.2539C20.6523 20.3672 20.3594 21.2201 19.7734 21.8125C19.1875 22.4049 18.3379 22.7012 17.2246 22.7012H6.76562C5.65885 22.7012 4.80924 22.4049 4.2168 21.8125C3.63086 21.2201 3.33789 20.3672 3.33789 19.2539Z" fill="#2E9980"/>
</svg>
