<svg width="24" height="25" viewBox="0 0 24 25" fill="none" xmlns="http://www.w3.org/2000/svg">
<path d="M13.4746 23.623C13.2858 23.623 13.123 23.5579 12.9863 23.4277C12.8496 23.304 12.765 23.1445 12.7324 22.9492C12.5697 21.9141 12.4004 21.0449 12.2246 20.3418C12.0488 19.6387 11.821 19.0625 11.541 18.6133C11.2676 18.1641 10.9095 17.806 10.4668 17.5391C10.0241 17.2656 9.45768 17.0475 8.76758 16.8848C8.08398 16.7155 7.23438 16.5625 6.21875 16.4258C6.01693 16.3997 5.85091 16.3184 5.7207 16.1816C5.59049 16.0384 5.52539 15.8691 5.52539 15.6738C5.52539 15.4785 5.59049 15.3125 5.7207 15.1758C5.85091 15.0326 6.02018 14.9479 6.22852 14.9219C7.23763 14.8112 8.08724 14.6777 8.77734 14.5215C9.47396 14.3652 10.0469 14.1504 10.4961 13.877C10.9453 13.597 11.3099 13.2292 11.5898 12.7734C11.8698 12.3177 12.0944 11.735 12.2637 11.0254C12.4329 10.3158 12.5892 9.4401 12.7324 8.39844C12.765 8.20312 12.8496 8.04362 12.9863 7.91992C13.123 7.79622 13.2858 7.73438 13.4746 7.73438C13.6634 7.73438 13.8262 7.79622 13.9629 7.91992C14.0996 8.04362 14.1842 8.20312 14.2168 8.39844C14.373 9.4401 14.5391 10.3158 14.7148 11.0254C14.8906 11.7285 15.1152 12.3079 15.3887 12.7637C15.6686 13.2129 16.0299 13.5742 16.4727 13.8477C16.9219 14.1211 17.4883 14.3392 18.1719 14.502C18.862 14.6582 19.7148 14.7982 20.7305 14.9219C20.9323 14.9544 21.0983 15.0423 21.2285 15.1855C21.3587 15.3223 21.4238 15.485 21.4238 15.6738C21.4238 15.8691 21.3587 16.0384 21.2285 16.1816C21.0983 16.3249 20.929 16.4062 20.7207 16.4258C19.7116 16.5365 18.8587 16.6732 18.1621 16.8359C17.472 16.9922 16.8991 17.207 16.4434 17.4805C15.9941 17.7474 15.6328 18.112 15.3594 18.5742C15.0859 19.0299 14.8613 19.6126 14.6855 20.3223C14.5163 21.0384 14.36 21.9141 14.2168 22.9492C14.1842 23.1445 14.0996 23.304 13.9629 23.4277C13.8327 23.5579 13.6699 23.623 13.4746 23.623ZM6.48242 12.7539C6.22201 12.7539 6.07552 12.6139 6.04297 12.334C5.96484 11.696 5.88346 11.1947 5.79883 10.8301C5.7207 10.4655 5.58724 10.1921 5.39844 10.0098C5.20964 9.82096 4.92969 9.68099 4.55859 9.58984C4.1875 9.49219 3.67318 9.39453 3.01562 9.29688C2.72266 9.2513 2.57617 9.10482 2.57617 8.85742C2.57617 8.61003 2.70638 8.46354 2.9668 8.41797C3.63086 8.29427 4.15169 8.18359 4.5293 8.08594C4.91341 7.98828 5.19987 7.84831 5.38867 7.66602C5.57747 7.48372 5.71419 7.2168 5.79883 6.86523C5.88346 6.50716 5.96484 6.01237 6.04297 5.38086C6.07552 5.10091 6.22201 4.96094 6.48242 4.96094C6.74284 4.96094 6.88932 5.0944 6.92188 5.36133C7.00651 6.01888 7.09115 6.5332 7.17578 6.9043C7.26042 7.27539 7.39388 7.55534 7.57617 7.74414C7.76497 7.92643 8.04818 8.06315 8.42578 8.1543C8.80339 8.23893 9.32747 8.32682 9.99805 8.41797C10.1087 8.43099 10.1999 8.47982 10.2715 8.56445C10.3496 8.64258 10.3887 8.74023 10.3887 8.85742C10.3887 9.09831 10.2617 9.24479 10.0078 9.29688C9.33073 9.41406 8.80339 9.52474 8.42578 9.62891C8.04818 9.72656 7.76497 9.86654 7.57617 10.0488C7.39388 10.2311 7.26042 10.5013 7.17578 10.8594C7.09115 11.2174 7.00651 11.7155 6.92188 12.3535C6.90885 12.4707 6.86003 12.5684 6.77539 12.6465C6.69727 12.7181 6.59961 12.7539 6.48242 12.7539ZM11.2383 5.74219C11.0755 5.74219 10.9811 5.65755 10.9551 5.48828C10.89 5.09115 10.8314 4.7819 10.7793 4.56055C10.7272 4.33919 10.6426 4.16992 10.5254 4.05273C10.4147 3.93555 10.2454 3.84766 10.0176 3.78906C9.78971 3.72396 9.46745 3.6556 9.05078 3.58398C8.875 3.55143 8.78711 3.45703 8.78711 3.30078C8.78711 3.15104 8.87174 3.05664 9.04102 3.01758C9.45768 2.93945 9.7832 2.86784 10.0176 2.80273C10.252 2.73763 10.4245 2.64974 10.5352 2.53906C10.6523 2.42188 10.7337 2.2526 10.7793 2.03125C10.8314 1.8099 10.89 1.50716 10.9551 1.12305C10.9811 0.947266 11.0755 0.859375 11.2383 0.859375C11.3945 0.859375 11.4857 0.94401 11.5117 1.11328C11.5768 1.51042 11.6354 1.82292 11.6875 2.05078C11.7396 2.27865 11.821 2.45117 11.9316 2.56836C12.0488 2.67904 12.2214 2.76693 12.4492 2.83203C12.6836 2.89062 13.0091 2.95247 13.4258 3.01758C13.5951 3.05013 13.6797 3.14453 13.6797 3.30078C13.6797 3.45703 13.5983 3.55143 13.4355 3.58398C13.0124 3.66211 12.6836 3.73372 12.4492 3.79883C12.2214 3.86393 12.0521 3.95508 11.9414 4.07227C11.8307 4.18945 11.7461 4.35872 11.6875 4.58008C11.6354 4.80143 11.5768 5.10742 11.5117 5.49805C11.4857 5.66081 11.3945 5.74219 11.2383 5.74219Z" fill="#2E9980"/>
</svg>
